<?xml version="1.0" encoding="utf-8"?>
<!-- Generator: Adobe Illustrator 18.0.0, SVG Export Plug-In . SVG Version: 6.00 Build 0)  -->
<!DOCTYPE svg PUBLIC "-//W3C//DTD SVG 1.1//EN" "http://www.w3.org/Graphics/SVG/1.1/DTD/svg11.dtd">
<svg version="1.1" id="Layer_1" xmlns="http://www.w3.org/2000/svg" xmlns:xlink="http://www.w3.org/1999/xlink" x="0px" y="0px"
	 viewBox="0 0 600 160" enable-background="new 0 0 600 160" xml:space="preserve">
<circle fill="#FFFFFF" stroke="#000000" stroke-width="2" stroke-miterlimit="10" cx="338" cy="79.2" r="66.1"/>
<path fill="#FFFFFF" stroke="#000000" stroke-width="2" stroke-miterlimit="10" d="M227.8,77.8c0,10.6,0,21.3,0,31.9
	c0,3.6,2.3,5.7,5.8,6.2c3.4,0.4,6.9,0.3,9.5,3.4c3.2,3.6,1.6,10.3-2.9,11.7c-10.3,3.4-27.2-2.9-31.2-14.4
	c-2.1-6.1-1.6-12.3-1.7-18.5c-0.1-5.5-0.1-10.9,0-16.5c0-1.6-0.4-2.4-2.3-2.4c-7.1,0.1-14.3,0.1-21.4,0c-2.1,0-2.6,0.8-2.6,2.7
	c0.2,6,0.1,12,0.2,18c0.2,6.1-1.7,10-8.2,11.4c-6.3,1.3-11.6-2.3-11.8-8.4c-0.4-19.3-0.3-38.7-0.2-57.9c0-6.2,7-9.6,12.2-8.3
	c5.8,1.4,7.9,4.9,7.7,11c-0.1,4,0,8,0,12.1c0,1.7,0.5,2.4,2.3,2.4c7.3-0.1,14.5-0.1,21.7-0.1c1.8,0,2.3-0.8,2.2-2.4
	c-0.1-4.3,0-8.7,0-13c0-4.4,2.3-8.6,5.5-9.7c5.2-1.8,9.7-1,13,2.9c1.2,1.4,2.1,3.6,1.9,5.7c-0.1,5.4,0,10.7,0,16.1
	C227.7,67.1,227.7,72.4,227.8,77.8L227.8,77.8z"/>
<path fill="#FFFFFF" stroke="#000000" stroke-width="2" stroke-miterlimit="10" d="M557.8,84.4c0-8.3,0-16.5,0-24.5
	c0-4.1-1.9-6.5-5.6-6.6c-5-0.2-7.4,1.6-7.4,6.3c0,12.6,0.2,25,0.2,37.6c0,2.8,0.3,5.5-1,8.4c-1.8,4.1-6.8,7-11,5.5
	c-6.8-2.4-8.1-4.2-8.1-11.7c0-13.3-0.5-26.6-0.1-40c0.3-11.3,8.2-20.8,21.3-23.1c7.8-1.3,14.4,0.6,20.9,4c5.3,2.7,8.2,7.3,9.9,12.8
	c2.2,7.4,0.8,14.9,1.2,22.4c0.6,11.8-0.1,23.7,0.3,35.5c0.1,2.6,2.4,4.3,5.6,4.5c3.4,0.2,6.5,0.6,9.3,3c1.9,1.7,2.9,3.9,2.6,6.2
	c-0.5,3-2.6,5.4-5.6,6.3c-10.1,2.6-18.6-0.6-26-7.4c-2.7-2.5-4.1-6-5.1-9.7C556.7,104.1,558.6,94,557.8,84.4z"/>
<path fill="#FFFFFF" stroke="#000000" stroke-width="2" stroke-miterlimit="10" d="M87.4,67.6c0-7.3,0-14.5,0-21.7
	c0-3.5,3.4-6.8,6.6-8.2c4.7-1.9,8-0.4,11.2,2.6c1.7,1.6,2.5,3.9,2.5,6.3c0.1,14.2,0.2,28.3,0.1,42.4c-0.1,11.2-9.7,21-20.9,22.7
	c-7.4,1.1-14.1,0.5-20.4-3.1c-5.6-3.2-10.1-7.6-11.3-14.6c-1.8-10.5-0.5-21-1.1-31.4c-0.2-5.1,0-10.1,0-15.2
	c-0.1-7.1,4.4-9.9,9.9-10.3c5.6-0.4,10.3,4,10.3,9.9c0.1,13.8,0.2,27.4,0,41.1c-0.1,7.1,5.2,7.8,9.9,6.6c2.3-0.5,3.4-2.4,3.4-5
	C87.4,82.2,87.5,74.9,87.4,67.6L87.4,67.6z"/>
<path fill="#FFFFFF" stroke="#000000" stroke-width="2" stroke-miterlimit="10" d="M484.9,82.5c5.1,7.4,10.9,11.8,19.3,11.5
	c2.9-0.1,5.4,0.8,8,1.6c2.7,1,4.4,4.5,4.2,8.2c-0.2,3.1-2.2,5.8-5,6.7c-3.1,1-6.2,1.3-9.6,0.4c-3.4-0.9-6.9-1.2-10.4-1.9
	c-4.9-1.1-9-3.7-12.8-6.6c-6.2-4.7-10.7-10.6-13-18.2c-2.8-9.2-2.1-18.1,2.5-26.4c5.2-9.6,13.3-16,23.7-19.5
	c4.2-1.4,8.6-1.6,12.9-2.4c4.1-0.8,8.6,0.3,10.6,4.7c2.6,5.3,0.6,10.3-4.5,11.8c-2.5,0.6-4.9,0.8-7.3,1c-7,0.6-12.5,4.1-16.2,10
	c-1.3,1.9,0.5,1.8,1.7,1.8c5.8,0,11.8-0.2,17.6,0c3.4,0.1,6.5,1,8.7,4.1c2.8,4,0.5,10.7-4.1,12.2c-4.5,1.5-9.2,0.6-13.8,1
	C493.4,82.6,489.6,82.5,484.9,82.5z"/>
<path fill="#FFFFFF" stroke="#000000" stroke-width="2" stroke-miterlimit="10" d="M51.9,45.5c0.2,3.1-1.9,6.3-5.5,7.7
	c-1.5,0.6-3.1,1.2-4.8,1.2c-3.2,0.1-3.9,1.8-3.9,4.7c0.1,10.4,0.4,20.9,0,31.3c-0.3,7.7-3.7,14-10.7,18.3c-3.9,2.5-8.1,2.9-12.2,4
	c-4.8,1.3-10.4-2.8-11.5-7.8c-0.5-2.4,2.2-7.1,5-8c1.8-0.5,3.6-1.5,5.6-1.4c2.6,0.1,3.6-1.3,3.6-3.9c-0.1-10.3-0.2-20.7,0-31
	c0.2-8.9,3.7-16.1,12-20.2c5-2.5,10.2-3.9,15.8-2.6C49.2,38.7,51.6,41.4,51.9,45.5z"/>
<path fill="#FFFFFF" stroke="#000000" stroke-width="2" stroke-miterlimit="10" d="M461.1,44.7c0,3.9-2.8,7.3-6.7,7.9
	c-1.7,0.2-3.2,1-5,1.2c-2.4,0.3-2.5,2.6-2.5,4.7c0,8.6,0.1,17.1,0.1,25.7c0,5.6-0.1,11.3-3.2,16.2c-3.8,6.1-9.2,9.6-16.4,10.8
	c-3,0.5-5.7,0.9-8.8-0.1c-2.8-0.9-6.4-4.9-6.5-7.8c0-2.4,3.4-7,5.7-7.7c1.6-0.4,3.2-1.1,4.8-1.1c3.2,0.1,4-1.7,4-4.4
	c-0.1-10.3-0.4-20.7-0.1-31c0.3-11.7,6.9-19.7,19.4-22.1c3-0.5,6-1.3,9.1-0.1C458.4,38.4,461.1,41.6,461.1,44.7z"/>
<path fill="#FFFFFF" stroke="#000000" stroke-width="2" stroke-miterlimit="10" d="M158.7,45c0,3.1-1.9,6.1-5.4,7.5
	c-1.6,0.6-3.4,1.2-5,1.3c-2.9,0.2-3.8,1.6-3.8,4.3c0.1,10.5,0.3,21,0.1,31.6c-0.3,10.9-8.2,19.4-19.2,21.5c-3.2,0.6-6.3,1.3-9.5,0
	c-2.7-1.1-5.8-5.1-5.7-7.9c0.2-3.2,3.2-6.7,6.3-7.5c1.7-0.3,3.2-1.1,5.1-1.2c1.6-0.1,2.7-1.2,2.6-3.2c-0.1-10.9,0-22-0.1-32.9
	c-0.1-10,9-20,18.9-21.3c4-0.5,7.8-1.5,11.6,0.9C157.5,39.7,158.8,42,158.7,45z"/>
<path fill="#FFFFFF" stroke="#000000" stroke-width="2" stroke-miterlimit="10" d="M233.6,74.2c0-9.4,0.3-18.8-0.1-28.2
	c-0.2-5.7,7-11.2,12.7-8.7c6.1,2.6,7.4,3.7,7.5,10.3c0.2,18.5,0.3,37,0.2,55.4c-0.1,6.5-6.4,9.6-11.6,9c-5.6-0.8-8.8-5.1-8.7-10.5
	C233.7,92.4,233.6,83.3,233.6,74.2L233.6,74.2z"/>
<path stroke="#000000" stroke-miterlimit="10" d="M338.5,137.1c-8.7,0.1-15.2-2.3-20.7-6.7c-3.4-2.7-5.6-6.5-6.9-10.7
	c-0.5-1.7-0.9-3.5-0.9-5.2c0-7.6,3.5-13.4,9.4-17.8c5.5-4,11.8-6,18.5-5.6c8.9,0.4,16.8,3.6,22.1,11.2c2.9,4.2,4.1,9,3.5,14.1
	c-0.9,7.8-5.4,12.8-11.7,16.8C347.4,135.9,342.3,136.7,338.5,137.1z M340.3,121.1c3.2,3.9,7.1,6.1,11.6,7c0.6,0.1,1.3,0.2,1.4-0.8
	c0.1-0.6,0-1.2-0.9-1.4c-2.2-0.5-4.2-1.5-6.1-2.7c-3.4-1.9-3.4-2.5-0.6-4.9c0.5-0.5,1.2-1.1,1.7-1.6c0.5-0.4,1.3-0.9,0.4-1.7
	c-0.6-0.5-1.3-1-2.1-0.2c-1.1,1-2.2,1.7-3.2,2.7c-0.8,0.6-1.3,0.8-1.8-0.3c-0.4-0.9-0.9-1.7-0.9-2.8c-0.1-1.2,0.3-1.4,1.4-1.4
	c2.5,0.1,5.1-0.1,7.6,0c1.4,0,1.9-0.3,1.8-1.8c-0.1-3.6-0.1-7,0-10.6c0.1-1.5-0.5-1.6-1.7-1.5c-2.2,0.1-4.4,0.2-6.6,0.1
	c-0.6,0-2.4,0.1-1.2-1.4c1-1.2-0.1-1.6-0.5-1.9c-0.8-0.6-1.1,0-1.6,0.8c-1,1.4-1.6,3.1-4,2.8c-2.5-0.3-5.2-0.1-7.7-0.1
	c-1,0-1.4,0.2-1.4,1.5c0.1,3.5,0.1,6.9,0,10.3c0,1.6,0.4,2.2,2.1,2.1c2.6-0.1,5.2-0.1,7.8-0.1c0.8,0,1.3,0,1.3,1.1
	c-0.1,3.9,0,7.8,0,11.6c0,1.1-0.2,1.8-1.5,1.6c-0.4-0.1-0.9,0.1-0.9,0.6c0,0.4-0.3,1.2,0.2,1.4c1.3,0.4,2.7,0.4,4-0.1
	c0.9-0.3,1.1-1.1,1.1-2.1C339.9,125.4,339.6,123.4,340.3,121.1z M329.9,114.5C329.9,114.6,329.9,114.6,329.9,114.5
	c-1.4,0.1-2.9,0.1-4.3,0.1c-0.8,0-1.8-0.2-1.8,1c0,1.1,0.9,1.3,1.8,1.3c1.9,0,3.9,0,5.8,0c0.9,0,1.3,0.2,1,1.1
	c-1.8,4.5-4.7,8.1-9.7,9.1c-0.9,0.2-1.8,0.2-1.5,1.5c0.2,1.2,1,1.2,1.9,1c7.9-2.1,11.2-7.3,12.7-13.5c0.2-0.9-0.1-1.4-1.1-1.4
	C333,114.6,331.4,114.5,329.9,114.5z"/>
<path stroke="#000000" stroke-miterlimit="10" d="M309.6,44c-2.3,1.9-3.9,4.7-6.9,5.7c2.2-2.6,4.3-5.2,6.1-8.1
	c2.8-4.7,5.6-9.3,6.7-14.7c0.5-2.9,3.6-3.6,6.7-1.5c-0.8,0.2-1.6,0.2-1.9,0.6c-1.1,1.2-2.5,2.7-1.8,4.3c0.4,1.2,2.2,0.4,3.4,0.4
	c1.4,0.1,2.9,0,4.3,0c0.5,0,1.1,0.1,1.4-0.3c0.5-0.5,1-1.5,1.8-1.1c1.3,0.6,2.4,1.5,3.5,2.4c0.3,0.2,0.1,1.2-0.6,1.1
	c-2.5-0.3-3.1,1.8-4.3,3.2s-2.2,3-3.4,4.7c-0.6-0.3-0.5-0.9-0.3-1.1c1-1.8,1.6-4,2.6-5.7c0.9-1.5,0-1.6-0.9-1.6
	c-2.5-0.1-5.1-0.1-7.6,0.1c-1.6,0.2-2.1,1.9-2.8,3.1c-0.8,1.1-1.2,2.4-1.9,3.5c-1.3,1.6-0.9,2.6,1.3,2.7c1.7,0.1,3.5,0,5.2,0
	c3.2,0,6.5,0,9.7,0c0.6,0,1.3,0,2.1-0.4c1.6-1.1,4.3-0.4,5.6,1.1c0.4,0.5,0.4,1.3-0.2,1.3c-1.8,0.1-1.4,1.3-1.4,2.3
	c0,5.6,0,11.3,0.1,16.8c0,1.6-0.8,2.4-1.8,3.1c-0.8,0.5-1.9,0.3-2.1-0.3c-0.6-2.1-2.2-1.6-3.6-1.6c-4.2,0-8.3,0.1-12.6,0.1
	c-0.9,0-1.5,0-1.5,1.2c0,1.4-1.3,1.9-2.3,2.3c-1.4,0.4-1.8-0.5-1.8-1.8c0-6.5-0.1-12.9-0.2-19.4C310,45.5,310.1,44.8,309.6,44z
	 M331.4,58c-0.1-5-0.1-5-4.7-4.8c-1.3,0-1.9,0.4-1.9,1.8c0.1,1.8,0.2,3.7,0.1,5.6c-0.1,1.5,0.3,1.9,1.9,1.9
	C331.5,62.4,331.5,62.5,331.4,58z M320.7,57.9c0-4.8,0-4.8-4.7-4.5c-0.1,0-0.1,0-0.2,0c-1.2-0.2-1.5,0.4-1.5,1.4
	c0,2.3,0.1,4.5,0.1,6.9c0,1,0.4,1,1.2,1C320.6,62.8,320.6,62.8,320.7,57.9z M331.4,47.6c0-0.5-0.1-1.2,0-1.7
	c0.2-1.6-0.3-2.3-2.1-2.3c-4.5,0.1-4.5,0-4.5,4.5c0,0.3,0,0.8,0,1.1c-0.3,1.9,0.5,2.5,2.5,2.4C331.4,51.5,331.4,51.6,331.4,47.6z
	 M320.6,47.6c0-0.5-0.1-1,0-1.5c0.2-1.7-0.2-2.5-2.3-2.4c-4.1,0.2-4.2,0-4.2,4.2c0,0.5,0.1,1,0,1.5c-0.2,1.8,0.5,2.4,2.4,2.3
	C320.7,51.6,320.7,51.7,320.6,47.6z"/>
<path stroke="#000000" stroke-miterlimit="10" d="M344,68.8c0-4,0-7.9,0-11.9c0-1.8,0.4-2.2,2.2-1.2c1.2,0.8,2.5,1,3.9,1
	c4.4-0.1,8.9-0.2,13.4-0.3c1.2,0,2.4,0,3.5-1c0.8-0.6,4.8,1.3,5,2.3c0.1,0.8-0.4,0.8-0.8,0.6c-1.5-0.1-1.5,0.9-1.4,1.9
	c0.1,6.1,0.1,12.2,0.1,18.3c0,1.3-1.1,1.8-1.9,2.2c-1.2,0.4-1.4-0.4-1.5-1.3s-0.9-0.8-1.5-0.8c-4.9,0.1-9.7,0.2-14.7,0.1
	c-1.4,0-1.8,0.5-1.6,1.7c0.3,2.1-1.2,1.8-2.5,1.9c-1.5,0.1-1.7-0.5-1.7-1.9C344.1,76.8,344,72.8,344,68.8L344,68.8z M357.2,68.9
	L357.2,68.9c-0.9,0.1-1.7,0-2.6,0.1c-2.1,0.1-4.8-0.9-6,0.4c-1.3,1.4-0.2,4.1-0.4,6.3c-0.1,1.4,0.5,1.9,1.8,1.8
	c3.4-0.1,6.6-0.1,10-0.1c6.6-0.1,6.6-0.1,6.2-6.7c-0.1-1.4-0.6-1.9-2.2-1.9C361.7,69,359.4,68.9,357.2,68.9z M357.2,58.5
	c0,0.1,0,0.2,0,0.2c-2.5,0-5,0-7.6,0c-1.1,0-1.5,0.4-1.4,1.5c0.1,1.8,0.1,3.8,0,5.6c0,1,0.4,1.4,1.4,1.4c5-0.1,10-0.1,14.8-0.2
	c0.9,0,1.6-0.2,1.6-1.3c0-1.9,0-3.9,0-5.8c0-1.1-0.5-1.5-1.6-1.4C362,58.5,359.5,58.5,357.2,58.5z"/>
<path stroke="#000000" stroke-miterlimit="10" d="M372,39c1,1.7,0.6,3.6,0.6,5.4c0,1.3,0.1,2.4,1.3,3.2c1.3,1,1,1.8-0.4,2.6
	c-0.6,0.3-1.3,0.4-2.1,0.4c-8.4,0.1-16.8,0.1-25.2,0.2c-1.9,0-3.1-1.1-3.1-2.7c-0.1-8-0.1-15.9-0.1-24.1c1.4,0.6,2.7,1,4.1,0.9
	c0.4,0,0.9,0,1,0.6c0.1,0.4-0.2,0.6-0.6,0.8c-1.1,0.3-1.1,1.2-1.1,2.1c0,2.7,0.1,5.3,0.1,8c0,1.5,0.5,1.7,1.8,1.4
	c5.8-1.7,11.6-3.8,17-6.6c3.5-1.8,4.9-1.5,7.5,1.9c-2.3,0.4-4.5,0.2-6.7,0.9c-5.6,1.7-11.5,3-17.2,4.7c-1.6,0.4-2.4,1.3-2.3,3.4
	c0.2,6.7-0.4,6.1,6.4,6c4.4-0.1,8.9-0.1,13.3-0.2c3.5-0.1,4.3-0.9,4.9-4.5C371.3,41.8,372.4,40.7,372,39z"/>
<path stroke="#000000" stroke-miterlimit="10" d="M310.5,70.5c0.8,3.7,0.8,7.1-1.1,10.5c-0.8,1.4-2.3,1.5-3.6,1.2
	c-1.3-0.2-0.8-1.3-0.4-2.1c0.5-1.4,2.2-2.2,2.9-3.4C309.4,75,310.6,72.9,310.5,70.5z"/>
<path stroke="#000000" stroke-miterlimit="10" d="M330,67.8c2.2,1,4.2,1.8,6.2,3.2c1.5,1.1,2.1,2.7,2.9,4.2c0.4,0.9,0.1,1.7-1,2.3
	c-1.2,0.5-1.9-0.2-2.2-1C334.6,73.1,332.9,70.1,330,67.8z"/>
<path stroke="#000000" stroke-miterlimit="10" d="M322.9,70c4.1,1.4,6.4,5.8,6.2,8.8c-0.1,1.1-0.6,1.8-1.6,1.8c-1,0-1.7-0.6-1.7-1.7
	c-0.1-1.5,0.1-3-0.5-4.7C324.6,72.8,323.8,71.6,322.9,70z"/>
<path stroke="#000000" stroke-miterlimit="10" d="M315.9,70.8c1.7,0.6,2.2,2.2,2.8,3.8c0.8,2.1,0.4,4.2,0.4,6.4
	c0,0.8-0.5,1.4-1.6,1.4c-1.2,0-1-0.9-1-1.5c0-1.9-0.1-4,0-6C316.7,73.4,316.7,72.1,315.9,70.8z"/>
<path stroke="#000000" stroke-miterlimit="10" d="M338.8,101.5c2.6,0,5.3,0,7.9,0c1.1,0,1.6,0.2,1.5,1.4c-0.1,1,0.3,2.3-1.4,2.2
	c-5.5,0-11,0-16.6,0c-1.4,0-1.8-0.5-1.8-1.9c0-1.6,1-1.5,1.9-1.5c2.8,0,5.6,0,8.3,0C338.8,101.6,338.8,101.5,338.8,101.5z"/>
<path stroke="#000000" stroke-miterlimit="10" d="M338.3,110.8c-2.8,0-5.6-0.1-8.3,0c-1.3,0-1.6-0.4-1.6-1.6c0-1.1,0.1-1.9,1.6-1.9
	c5.6,0,11.4,0,17,0c1.5,0,1.3,0.9,1.3,1.8c0,0.9,0.3,1.8-1.3,1.7C344.1,110.7,341.1,110.8,338.3,110.8L338.3,110.8z"/>
</svg>
