<?xml version="1.0" encoding="utf-8"?>
<!-- Generator: Adobe Illustrator 18.0.0, SVG Export Plug-In . SVG Version: 6.00 Build 0)  -->
<!DOCTYPE svg PUBLIC "-//W3C//DTD SVG 1.1//EN" "http://www.w3.org/Graphics/SVG/1.1/DTD/svg11.dtd">
<svg version="1.1" id="Layer_1" xmlns="http://www.w3.org/2000/svg" xmlns:xlink="http://www.w3.org/1999/xlink" x="0px" y="0px"
	 viewBox="0 0 250 300" enable-background="new 0 0 250 300" xml:space="preserve">
<circle fill="#FFFFFF" stroke="#000000" stroke-width="2" stroke-miterlimit="10" cx="124.1" cy="141" r="61"/>
<path fill="#FFFFFF" stroke="#000000" stroke-width="2" stroke-miterlimit="10" d="M214.3,42.8c0,9.8,0,19.7,0,29.5
	c0,3.3,2.1,5.3,5.4,5.7c3.1,0.4,6.4,0.3,8.8,3.1c3,3.3,1.5,9.5-2.7,10.8c-9.5,3.1-25.1-2.7-28.8-13.3c-1.9-5.6-1.5-11.4-1.6-17.1
	c-0.1-5.1-0.1-10.1,0-15.2c0-1.5-0.4-2.2-2.1-2.2c-6.6,0.1-13.2,0.1-19.8,0c-1.9,0-2.4,0.7-2.4,2.5c0.2,5.5,0.1,11.1,0.2,16.6
	c0.2,5.6-1.6,9.2-7.6,10.5c-5.8,1.2-10.7-2.1-10.9-7.8c-0.4-17.8-0.3-35.7-0.2-53.5c0-5.7,6.5-8.9,11.3-7.7
	c5.4,1.3,7.3,4.5,7.1,10.2c-0.1,3.7,0,7.4,0,11.2c0,1.6,0.5,2.2,2.1,2.2c6.7-0.1,13.4-0.1,20-0.1c1.7,0,2.1-0.7,2-2.2
	c-0.1-4,0-8,0-12c0-4.1,2.1-7.9,5.1-9c4.8-1.7,9-0.9,12,2.7c1.1,1.3,1.9,3.3,1.8,5.3c-0.1,5,0,9.9,0,14.9
	C214.2,32.9,214.2,37.8,214.3,42.8C214.3,42.8,214.3,42.8,214.3,42.8z"/>
<path fill="#FFFFFF" stroke="#000000" stroke-width="2" stroke-miterlimit="10" d="M176.9,252.2c0-7.7,0-15.2,0-22.6
	c0-3.8-1.8-6-5.2-6.1c-4.6-0.2-6.8,1.5-6.8,5.8c0,11.6,0.2,23.1,0.2,34.7c0,2.6,0.3,5.1-0.9,7.8c-1.7,3.8-6.3,6.5-10.2,5.1
	c-6.3-2.2-7.5-3.9-7.5-10.8c0-12.3-0.5-24.6-0.1-36.9c0.3-10.4,7.6-19.2,19.7-21.3c7.2-1.2,13.3,0.6,19.3,3.7
	c4.9,2.5,7.6,6.7,9.1,11.8c2,6.8,0.7,13.8,1.1,20.7c0.6,10.9-0.1,21.9,0.3,32.8c0.1,2.4,2.2,4,5.2,4.2c3.1,0.2,6,0.6,8.6,2.8
	c1.8,1.6,2.7,3.6,2.4,5.7c-0.5,2.8-2.4,5-5.2,5.8c-9.3,2.4-17.2-0.6-24-6.8c-2.5-2.3-3.8-5.5-4.7-9
	C175.9,270.4,177.6,261.1,176.9,252.2z"/>
<path fill="#FFFFFF" stroke="#000000" stroke-width="2" stroke-miterlimit="10" d="M84.7,33.4c0-6.7,0-13.4,0-20
	c0-3.2,3.1-6.3,6.1-7.6c4.3-1.8,7.4-0.4,10.3,2.4c1.6,1.5,2.3,3.6,2.3,5.8c0.1,13.1,0.2,26.1,0.1,39.2c-0.1,10.3-9,19.4-19.3,21
	c-6.8,1-13,0.5-18.8-2.9c-5.2-3-9.3-7-10.4-13.5c-1.7-9.7-0.5-19.4-1-29c-0.2-4.7,0-9.3,0-14c-0.1-6.6,4.1-9.1,9.1-9.5
	c5.2-0.4,9.5,3.7,9.5,9.1c0.1,12.7,0.2,25.3,0,38c-0.1,6.6,4.8,7.2,9.1,6.1c2.1-0.5,3.1-2.2,3.1-4.6C84.7,46.9,84.8,40.1,84.7,33.4
	C84.7,33.4,84.7,33.4,84.7,33.4z"/>
<path fill="#FFFFFF" stroke="#000000" stroke-width="2" stroke-miterlimit="10" d="M109.6,250.5c4.7,6.8,10.1,10.9,17.8,10.6
	c2.7-0.1,5,0.7,7.4,1.5c2.5,0.9,4.1,4.2,3.9,7.6c-0.2,2.9-2,5.4-4.6,6.2c-2.9,0.9-5.7,1.2-8.9,0.4c-3.1-0.8-6.4-1.1-9.6-1.8
	c-4.5-1-8.3-3.4-11.8-6.1c-5.7-4.3-9.9-9.8-12-16.8c-2.6-8.5-1.9-16.7,2.3-24.4c4.8-8.9,12.3-14.8,21.9-18c3.9-1.3,7.9-1.5,11.9-2.2
	c3.8-0.7,7.9,0.3,9.8,4.3c2.4,4.9,0.6,9.5-4.2,10.9c-2.3,0.6-4.5,0.7-6.7,0.9c-6.5,0.6-11.5,3.8-15,9.2c-1.2,1.8,0.5,1.7,1.6,1.7
	c5.4,0,10.9-0.2,16.3,0c3.1,0.1,6,0.9,8,3.8c2.6,3.7,0.5,9.9-3.8,11.3c-4.2,1.4-8.5,0.6-12.7,0.9
	C117.4,250.6,113.9,250.5,109.6,250.5z"/>
<path fill="#FFFFFF" stroke="#000000" stroke-width="2" stroke-miterlimit="10" d="M51.9,13c0.2,2.9-1.8,5.8-5.1,7.1
	c-1.4,0.6-2.9,1.1-4.4,1.1c-3,0.1-3.6,1.7-3.6,4.3c0.1,9.6,0.4,19.3,0,28.9c-0.3,7.1-3.4,12.9-9.9,16.9c-3.6,2.3-7.5,2.7-11.3,3.7
	C13.2,76.2,8,72.4,7,67.8c-0.5-2.2,2-6.6,4.6-7.4c1.7-0.5,3.3-1.4,5.2-1.3c2.4,0.1,3.3-1.2,3.3-3.6c-0.1-9.5-0.2-19.1,0-28.6
	c0.2-8.2,3.4-14.9,11.1-18.7c4.6-2.3,9.4-3.6,14.6-2.4C49.4,6.7,51.6,9.2,51.9,13z"/>
<path fill="#FFFFFF" stroke="#000000" stroke-width="2" stroke-miterlimit="10" d="M87.6,215.6c0,3.6-2.6,6.7-6.2,7.3
	c-1.6,0.2-3,0.9-4.6,1.1c-2.2,0.3-2.3,2.4-2.3,4.3c0,7.9,0.1,15.8,0.1,23.7c0,5.2-0.1,10.4-3,15c-3.5,5.6-8.5,8.9-15.1,10
	c-2.8,0.5-5.3,0.8-8.1-0.1c-2.6-0.8-5.9-4.5-6-7.2c0-2.2,3.1-6.5,5.3-7.1c1.5-0.4,3-1,4.4-1c3,0.1,3.7-1.6,3.7-4.1
	c-0.1-9.5-0.4-19.1-0.1-28.6c0.3-10.8,6.4-18.2,17.9-20.4c2.8-0.5,5.5-1.2,8.4-0.1C85.1,209.7,87.6,212.7,87.6,215.6z"/>
<path fill="#FFFFFF" stroke="#000000" stroke-width="2" stroke-miterlimit="10" d="M150.5,12.5c0,2.9-1.8,5.6-5,6.9
	c-1.5,0.6-3.1,1.1-4.6,1.2c-2.7,0.2-3.5,1.5-3.5,4c0.1,9.7,0.3,19.4,0.1,29.2c-0.3,10.1-7.6,17.9-17.7,19.9c-3,0.6-5.8,1.2-8.8,0
	c-2.5-1-5.4-4.7-5.3-7.3c0.2-3,3-6.2,5.8-6.9c1.6-0.3,3-1,4.7-1.1c1.5-0.1,2.5-1.1,2.4-3c-0.1-10.1,0-20.3-0.1-30.4
	c-0.1-9.2,8.3-18.5,17.5-19.7c3.7-0.5,7.2-1.4,10.7,0.8C149.4,7.6,150.6,9.7,150.5,12.5z"/>
<path fill="#FFFFFF" stroke="#000000" stroke-width="2" stroke-miterlimit="10" d="M219.7,39.5c0-8.7,0.3-17.4-0.1-26
	c-0.2-5.3,6.5-10.3,11.7-8c5.6,2.4,6.8,3.4,6.9,9.5c0.2,17.1,0.3,34.2,0.2,51.2c-0.1,6-5.9,8.9-10.7,8.3c-5.2-0.7-8.1-4.7-8-9.7
	C219.8,56.3,219.7,47.9,219.7,39.5C219.7,39.5,219.7,39.5,219.7,39.5z"/>
<path stroke="#000000" stroke-miterlimit="10" d="M124.6,194.5c-8,0.1-14-2.1-19.1-6.2c-3.1-2.5-5.2-6-6.4-9.9
	c-0.5-1.6-0.8-3.2-0.8-4.8c0-7,3.2-12.4,8.7-16.4c5.1-3.7,10.9-5.5,17.1-5.2c8.2,0.4,15.5,3.3,20.4,10.3c2.7,3.9,3.8,8.3,3.2,13
	c-0.8,7.2-5,11.8-10.8,15.5C132.8,193.4,128.1,194.1,124.6,194.5z M126.2,179.7c3,3.6,6.6,5.6,10.7,6.5c0.6,0.1,1.2,0.2,1.3-0.7
	c0.1-0.6,0-1.1-0.8-1.3c-2-0.5-3.9-1.4-5.6-2.5c-3.1-1.8-3.1-2.3-0.6-4.5c0.5-0.5,1.1-1,1.6-1.5c0.5-0.4,1.2-0.8,0.4-1.6
	c-0.6-0.5-1.2-0.9-1.9-0.2c-1,0.9-2,1.6-3,2.5c-0.7,0.6-1.2,0.7-1.7-0.3c-0.4-0.8-0.8-1.6-0.8-2.6c-0.1-1.1,0.3-1.3,1.3-1.3
	c2.3,0.1,4.7-0.1,7,0c1.3,0,1.8-0.3,1.7-1.7c-0.1-3.3-0.1-6.5,0-9.8c0.1-1.4-0.5-1.5-1.6-1.4c-2,0.1-4.1,0.2-6.1,0.1
	c-0.6,0-2.2,0.1-1.1-1.3c0.9-1.1-0.1-1.5-0.5-1.8c-0.7-0.6-1,0-1.5,0.7c-0.9,1.3-1.5,2.9-3.7,2.6c-2.3-0.3-4.8-0.1-7.1-0.1
	c-0.9,0-1.3,0.2-1.3,1.4c0.1,3.2,0.1,6.4,0,9.5c0,1.5,0.4,2,1.9,1.9c2.4-0.1,4.8-0.1,7.2-0.1c0.7,0,1.2,0,1.2,1
	c-0.1,3.6,0,7.2,0,10.7c0,1-0.2,1.7-1.4,1.5c-0.4-0.1-0.8,0.1-0.8,0.6c0,0.4-0.3,1.1,0.2,1.3c1.2,0.4,2.5,0.4,3.7-0.1
	c0.8-0.3,1-1,1-1.9C125.9,183.7,125.6,181.8,126.2,179.7z M116.6,173.6C116.6,173.7,116.6,173.7,116.6,173.6c-1.3,0.1-2.7,0.1-4,0.1
	c-0.7,0-1.7-0.2-1.7,0.9c0,1,0.8,1.2,1.7,1.2c1.8,0,3.6,0,5.4,0c0.8,0,1.2,0.2,0.9,1c-1.7,4.2-4.3,7.5-9,8.4
	c-0.8,0.2-1.7,0.2-1.4,1.4c0.2,1.1,0.9,1.1,1.8,0.9c7.3-1.9,10.3-6.7,11.7-12.5c0.2-0.8-0.1-1.3-1-1.3
	C119.5,173.7,118,173.6,116.6,173.6z"/>
<path stroke="#000000" stroke-miterlimit="10" d="M97.9,108.5c-2.1,1.8-3.6,4.3-6.4,5.3c2-2.4,4-4.8,5.6-7.5
	c2.6-4.3,5.2-8.6,6.2-13.6c0.5-2.7,3.3-3.3,6.2-1.4c-0.7,0.2-1.5,0.2-1.8,0.6c-1,1.1-2.3,2.5-1.7,4c0.4,1.1,2,0.4,3.1,0.4
	c1.3,0.1,2.7,0,4,0c0.5,0,1,0.1,1.3-0.3c0.5-0.5,0.9-1.4,1.7-1c1.2,0.6,2.2,1.4,3.2,2.2c0.3,0.2,0.1,1.1-0.6,1c-2.3-0.3-2.9,1.7-4,3
	c-1.1,1.3-2,2.8-3.1,4.3c-0.6-0.3-0.5-0.8-0.3-1c0.9-1.7,1.5-3.7,2.4-5.3c0.8-1.4,0-1.5-0.8-1.5c-2.3-0.1-4.7-0.1-7,0.1
	c-1.5,0.2-1.9,1.8-2.6,2.9c-0.7,1-1.1,2.2-1.8,3.2c-1.2,1.5-0.8,2.4,1.2,2.5c1.6,0.1,3.2,0,4.8,0c3,0,6,0,9,0c0.6,0,1.2,0,1.9-0.4
	c1.5-1,4-0.4,5.2,1c0.4,0.5,0.4,1.2-0.2,1.2c-1.7,0.1-1.3,1.2-1.3,2.1c0,5.2,0,10.4,0.1,15.5c0,1.5-0.7,2.2-1.7,2.9
	c-0.7,0.5-1.8,0.3-1.9-0.3c-0.6-1.9-2-1.5-3.3-1.5c-3.9,0-7.7,0.1-11.6,0.1c-0.8,0-1.4,0-1.4,1.1c0,1.3-1.2,1.8-2.1,2.1
	c-1.3,0.4-1.7-0.5-1.7-1.7c0-6-0.1-11.9-0.2-17.9C98.2,109.9,98.3,109.2,97.9,108.5z M118,121.4c-0.1-4.6-0.1-4.6-4.3-4.4
	c-1.2,0-1.8,0.4-1.8,1.7c0.1,1.7,0.2,3.4,0.1,5.2c-0.1,1.4,0.3,1.8,1.8,1.8C118.1,125.5,118.1,125.6,118,121.4z M108.1,121.3
	c0-4.4,0-4.4-4.3-4.2c-0.1,0-0.1,0-0.2,0c-1.1-0.2-1.4,0.4-1.4,1.3c0,2.1,0.1,4.2,0.1,6.4c0,0.9,0.4,0.9,1.1,0.9
	C108,125.9,108,125.9,108.1,121.3z M118,111.8c0-0.5-0.1-1.1,0-1.6c0.2-1.5-0.3-2.1-1.9-2.1c-4.2,0.1-4.2,0-4.2,4.2c0,0.3,0,0.7,0,1
	c-0.3,1.8,0.5,2.3,2.3,2.2C118,115.4,118,115.5,118,111.8z M108,111.8c0-0.5-0.1-0.9,0-1.4c0.2-1.6-0.2-2.3-2.1-2.2
	c-3.8,0.2-3.9,0-3.9,3.9c0,0.5,0.1,0.9,0,1.4c-0.2,1.7,0.5,2.2,2.2,2.1C108.1,115.5,108.1,115.6,108,111.8z"/>
<path stroke="#000000" stroke-miterlimit="10" d="M129.6,131.4c0-3.7,0-7.3,0-11c0-1.7,0.4-2,2-1.1c1.1,0.7,2.3,0.9,3.6,0.9
	c4.1-0.1,8.2-0.2,12.4-0.3c1.1,0,2.2,0,3.2-0.9c0.7-0.6,4.4,1.2,4.6,2.1c0.1,0.7-0.4,0.7-0.7,0.6c-1.4-0.1-1.4,0.8-1.3,1.8
	c0.1,5.6,0.1,11.3,0.1,16.9c0,1.2-1,1.7-1.8,2c-1.1,0.4-1.3-0.4-1.4-1.2c-0.1-0.8-0.8-0.7-1.4-0.7c-4.5,0.1-9,0.2-13.6,0.1
	c-1.3,0-1.7,0.5-1.5,1.6c0.3,1.9-1.1,1.7-2.3,1.8c-1.4,0.1-1.6-0.5-1.6-1.8C129.7,138.8,129.6,135.1,129.6,131.4
	C129.6,131.4,129.6,131.4,129.6,131.4z M141.8,131.5C141.8,131.5,141.8,131.5,141.8,131.5c-0.8,0.1-1.6,0-2.4,0.1
	c-1.9,0.1-4.4-0.8-5.5,0.4c-1.2,1.3-0.2,3.8-0.4,5.8c-0.1,1.3,0.5,1.8,1.7,1.7c3.1-0.1,6.1-0.1,9.2-0.1c6.1-0.1,6.1-0.1,5.7-6.2
	c-0.1-1.3-0.6-1.8-2-1.8C146,131.6,143.9,131.5,141.8,131.5z M141.8,121.9c0,0.1,0,0.2,0,0.2c-2.3,0-4.6,0-7,0c-1,0-1.4,0.4-1.3,1.4
	c0.1,1.7,0.1,3.5,0,5.2c0,0.9,0.4,1.3,1.3,1.3c4.6-0.1,9.2-0.1,13.7-0.2c0.8,0,1.5-0.2,1.5-1.2c0-1.8,0-3.6,0-5.4
	c0-1-0.5-1.4-1.5-1.3C146.3,121.9,144,121.9,141.8,121.9z"/>
<path stroke="#000000" stroke-miterlimit="10" d="M155.5,103.9c0.9,1.6,0.6,3.3,0.6,5c0,1.2,0.1,2.2,1.2,3c1.2,0.9,0.9,1.7-0.4,2.4
	c-0.6,0.3-1.2,0.4-1.9,0.4c-7.8,0.1-15.5,0.1-23.3,0.2c-1.8,0-2.9-1-2.9-2.5c-0.1-7.4-0.1-14.7-0.1-22.3c1.3,0.6,2.5,0.9,3.8,0.8
	c0.4,0,0.8,0,0.9,0.6c0.1,0.4-0.2,0.6-0.6,0.7c-1,0.3-1,1.1-1,1.9c0,2.5,0.1,4.9,0.1,7.4c0,1.4,0.5,1.6,1.7,1.3
	c5.4-1.6,10.7-3.5,15.7-6.1c3.2-1.7,4.5-1.4,6.9,1.8c-2.1,0.4-4.2,0.2-6.2,0.8c-5.2,1.6-10.6,2.8-15.9,4.3c-1.5,0.4-2.2,1.2-2.1,3.1
	c0.2,6.2-0.4,5.6,5.9,5.5c4.1-0.1,8.2-0.1,12.3-0.2c3.2-0.1,4-0.8,4.5-4.2C154.9,106.5,155.9,105.4,155.5,103.9z"/>
<path stroke="#000000" stroke-miterlimit="10" d="M98.7,133c0.7,3.4,0.7,6.6-1,9.7c-0.7,1.3-2.1,1.4-3.3,1.1
	c-1.2-0.2-0.7-1.2-0.4-1.9c0.5-1.3,2-2,2.7-3.1C97.7,137.1,98.8,135.2,98.7,133z"/>
<path stroke="#000000" stroke-miterlimit="10" d="M116.7,130.5c2,0.9,3.9,1.7,5.7,3c1.4,1,1.9,2.5,2.7,3.9c0.4,0.8,0.1,1.6-0.9,2.1
	c-1.1,0.5-1.8-0.2-2-0.9C121,135.4,119.4,132.6,116.7,130.5z"/>
<path stroke="#000000" stroke-miterlimit="10" d="M110.2,132.5c3.8,1.3,5.9,5.4,5.7,8.1c-0.1,1-0.6,1.7-1.5,1.7
	c-0.9,0-1.6-0.6-1.6-1.6c-0.1-1.4,0.1-2.8-0.5-4.3C111.7,135.1,111,134,110.2,132.5z"/>
<path stroke="#000000" stroke-miterlimit="10" d="M103.7,133.2c1.6,0.6,2,2,2.6,3.5c0.7,1.9,0.4,3.9,0.4,5.9c0,0.7-0.5,1.3-1.5,1.3
	c-1.1,0-0.9-0.8-0.9-1.4c0-1.8-0.1-3.7,0-5.5C104.4,135.6,104.4,134.4,103.7,133.2z"/>
<path stroke="#000000" stroke-miterlimit="10" d="M124.8,161.6c2.4,0,4.9,0,7.3,0c1,0,1.5,0.2,1.4,1.3c-0.1,0.9,0.3,2.1-1.3,2
	c-5.1,0-10.2,0-15.3,0c-1.3,0-1.7-0.5-1.7-1.8c0-1.5,0.9-1.4,1.8-1.4c2.6,0,5.2,0,7.7,0C124.8,161.7,124.8,161.6,124.8,161.6z"/>
<path stroke="#000000" stroke-miterlimit="10" d="M124.4,170.2c-2.6,0-5.2-0.1-7.7,0c-1.2,0-1.5-0.4-1.5-1.5c0-1,0.1-1.8,1.5-1.8
	c5.2,0,10.5,0,15.7,0c1.4,0,1.2,0.8,1.2,1.7c0,0.8,0.3,1.7-1.2,1.6C129.7,170.1,127,170.2,124.4,170.2
	C124.4,170.2,124.4,170.2,124.4,170.2z"/>
</svg>
